<svg xmlns="http://www.w3.org/2000/svg" xmlns:xlink="http://www.w3.org/1999/xlink" version="1.1" width="256" height="256" viewBox="0 0 256 256" xml:space="preserve">

<defs>
</defs>
<g style="stroke: none; stroke-width: 0; stroke-dasharray: none; stroke-linecap: butt; stroke-linejoin: miter; stroke-miterlimit: 10; fill: none; fill-rule: nonzero; opacity: 1;" transform="translate(1.4065934065934016 1.4065934065934016) scale(2.81 2.81)" >
	<path d="M 70.843 62.645 V 41.667 V 16.078 c 0 -4.216 -3.418 -7.633 -7.633 -7.633 H 52.901 c 0 5.925 -4.803 10.728 -10.728 10.728 h -5.777 c -5.925 0 -10.728 -4.803 -10.728 -10.728 H 15.36 c -4.216 0 -7.633 3.418 -7.633 7.633 v 65.289 c 0 4.216 3.418 7.633 7.633 7.633 h 26.063 h 18.625 L 70.843 62.645 z" style="stroke: none; stroke-width: 1; stroke-dasharray: none; stroke-linecap: butt; stroke-linejoin: miter; stroke-miterlimit: 10; fill: rgb(212,222,251); fill-rule: nonzero; opacity: 1;" transform=" matrix(1 0 0 1 0 0) " stroke-linecap="round" />
	<path d="M 45.647 8.444 c 0.051 -0.326 0.085 -0.657 0.085 -0.997 C 45.732 3.887 42.845 1 39.285 1 c -3.561 0 -6.447 2.887 -6.447 6.447 c 0 0.34 0.034 0.671 0.085 0.997 h -7.254 c 0 5.925 4.803 10.728 10.728 10.728 h 5.777 c 5.925 0 10.728 -4.803 10.728 -10.728 H 45.647 z" style="stroke: none; stroke-width: 1; stroke-dasharray: none; stroke-linecap: butt; stroke-linejoin: miter; stroke-miterlimit: 10; fill: rgb(237,180,79); fill-rule: nonzero; opacity: 1;" transform=" matrix(1 0 0 1 0 0) " stroke-linecap="round" />
	<circle cx="60.045" cy="66.775" r="22.225" style="stroke: none; stroke-width: 1; stroke-dasharray: none; stroke-linecap: butt; stroke-linejoin: miter; stroke-miterlimit: 10; fill: rgb(237,180,79); fill-rule: nonzero; opacity: 1;" transform="  matrix(1 0 0 1 0 0) "/>
	<path d="M 60.049 90 c -12.807 0 -23.225 -10.419 -23.225 -23.225 c 0 -12.807 10.418 -23.225 23.225 -23.225 c 12.806 0 23.225 10.418 23.225 23.225 C 83.273 79.581 72.854 90 60.049 90 z M 60.049 45.55 c -11.703 0 -21.225 9.522 -21.225 21.225 S 48.346 88 60.049 88 s 21.225 -9.521 21.225 -21.225 S 71.752 45.55 60.049 45.55 z" style="stroke: none; stroke-width: 1; stroke-dasharray: none; stroke-linecap: butt; stroke-linejoin: miter; stroke-miterlimit: 10; fill: rgb(0,0,0); fill-rule: nonzero; opacity: 1;" transform=" matrix(1 0 0 1 0 0) " stroke-linecap="round" />
	<path d="M 68.91 75.537 c -0.234 0 -0.469 -0.082 -0.659 -0.248 l -8.861 -7.762 c -0.217 -0.189 -0.341 -0.464 -0.341 -0.752 V 56.771 c 0 -0.553 0.447 -1 1 -1 s 1 0.447 1 1 v 9.552 l 8.521 7.463 c 0.415 0.363 0.457 0.995 0.093 1.411 C 69.465 75.422 69.188 75.537 68.91 75.537 z" style="stroke: none; stroke-width: 1; stroke-dasharray: none; stroke-linecap: butt; stroke-linejoin: miter; stroke-miterlimit: 10; fill: rgb(0,0,0); fill-rule: nonzero; opacity: 1;" transform=" matrix(1 0 0 1 0 0) " stroke-linecap="round" />
	<path d="M 42.173 20.172 h -5.777 c -6.467 0 -11.728 -5.261 -11.728 -11.729 c 0 -0.552 0.448 -1 1 -1 h 6.169 C 31.839 3.339 35.18 0 39.285 0 s 7.445 3.339 7.448 7.444 h 6.169 c 0.553 0 1 0.448 1 1 C 53.901 14.911 48.64 20.172 42.173 20.172 z M 26.719 9.444 c 0.502 4.896 4.651 8.729 9.677 8.729 h 5.777 c 5.026 0 9.176 -3.832 9.678 -8.729 h -6.204 c -0.292 0 -0.57 -0.128 -0.76 -0.35 c -0.19 -0.222 -0.273 -0.516 -0.229 -0.805 c 0.05 -0.319 0.073 -0.587 0.073 -0.842 C 44.732 4.444 42.288 2 39.285 2 s -5.447 2.444 -5.447 5.447 c 0 0.255 0.023 0.523 0.073 0.842 c 0.045 0.289 -0.039 0.583 -0.229 0.805 c -0.19 0.222 -0.468 0.35 -0.76 0.35 H 26.719 z" style="stroke: none; stroke-width: 1; stroke-dasharray: none; stroke-linecap: butt; stroke-linejoin: miter; stroke-miterlimit: 10; fill: rgb(0,0,0); fill-rule: nonzero; opacity: 1;" transform=" matrix(1 0 0 1 0 0) " stroke-linecap="round" />
	<path d="M 39.423 90 H 15.36 c -4.76 0 -8.633 -3.873 -8.633 -8.634 V 16.078 c 0 -4.761 3.873 -8.634 8.633 -8.634 h 10.308 c 0.552 0 1 0.448 1 1 c 0 5.364 4.364 9.729 9.728 9.729 h 5.777 c 5.364 0 9.729 -4.364 9.729 -9.729 c 0 -0.552 0.447 -1 1 -1 h 10.308 c 4.761 0 8.634 3.873 8.634 8.634 v 21.589 c 0 0.552 -0.447 1 -1 1 s -1 -0.448 -1 -1 V 16.078 c 0 -3.658 -2.976 -6.634 -6.634 -6.634 h -9.35 c -0.509 6.001 -5.556 10.729 -11.687 10.729 h -5.777 c -6.13 0 -11.177 -4.728 -11.686 -10.729 h -9.35 c -3.658 0 -6.633 2.976 -6.633 6.634 v 65.289 c 0 3.658 2.976 6.634 6.633 6.634 h 24.063 c 0.552 0 1 0.447 1 1 S 39.976 90 39.423 90 z" style="stroke: none; stroke-width: 1; stroke-dasharray: none; stroke-linecap: butt; stroke-linejoin: miter; stroke-miterlimit: 10; fill: rgb(0,0,0); fill-rule: nonzero; opacity: 1;" transform=" matrix(1 0 0 1 0 0) " stroke-linecap="round" />
</g>
</svg>